<?xml version="1.0" encoding="UTF-8"?>
<svg version="1.1" xmlns="http://www.w3.org/2000/svg" width="1280" height="1280">
<path d="M0 0 C1.31396759 -0.00100708 2.62793518 -0.00201416 3.98171997 -0.00305176 C24.39976046 -0.00153525 44.43208244 0.67717937 64.6875 3.25 C65.86473633 3.38921875 67.04197266 3.5284375 68.25488281 3.671875 C117.31560706 9.52825325 165.54059108 23.27159201 210.6875 43.25 C211.67121582 43.68280273 212.65493164 44.11560547 213.66845703 44.56152344 C256.00714211 63.28601379 296.29492492 87.26978273 331.6875 117.25 C332.75355475 118.14234718 333.81998115 119.03425048 334.88671875 119.92578125 C341.61386731 125.56410874 348.21111158 131.32395718 354.6875 137.25 C355.68093027 138.14980507 356.67442292 139.04954128 357.66796875 139.94921875 C368.24946847 149.57632789 378.86624975 159.44029475 388.1015625 170.38671875 C389.98941407 172.60471185 391.96452792 174.73242155 393.9375 176.875 C398.48552765 181.91553826 402.65442095 187.19878466 406.80859375 192.5625 C408.70526232 195.00781307 410.63297275 197.42151105 412.59765625 199.8125 C420.58537905 209.55397994 427.73087507 219.75189977 434.6875 230.25 C435.42081543 231.35311523 435.42081543 231.35311523 436.16894531 232.47851562 C443.04615837 242.85762245 449.49626325 253.44926535 455.6875 264.25 C456.08791504 264.94109863 456.48833008 265.63219727 456.90087891 266.34423828 C489.95469007 323.51947748 509.5386007 387.67228443 518.875 452.8125 C519.10751465 454.40421021 519.10751465 454.40421021 519.34472656 456.02807617 C522.29701082 477.68620073 523.0687871 499.41506099 523 521.25 C522.99784485 522.49279724 522.9956897 523.73559448 522.99346924 525.01605225 C522.93830011 544.93083078 522.31762752 564.49727528 519.6875 584.25 C519.53831116 585.38870544 519.53831116 585.38870544 519.3861084 586.55041504 C515.1697091 618.54468036 508.39130256 649.43782849 498.6875 680.25 C498.37200195 681.26223633 498.05650391 682.27447266 497.73144531 683.31738281 C476.6878961 750.37325208 440.55600958 815.05607481 392.84765625 866.87890625 C391.00569466 868.90073389 389.20427566 870.94767417 387.41015625 873.01171875 C377.61136193 884.23289765 367.33011811 894.93372126 356.22558594 904.86474609 C354.66975853 906.26597859 353.13338871 907.68587566 351.6015625 909.11328125 C345.17296912 915.09745915 338.54608292 920.76131922 331.6875 926.25 C330.55666043 927.17240375 329.42648485 928.09562196 328.296875 929.01953125 C312.50352689 941.87964601 295.872972 953.3390563 278.6875 964.25 C277.84316406 964.79156738 276.99882813 965.33313477 276.12890625 965.89111328 C262.70287786 974.49184342 248.91519831 982.06369746 234.6875 989.25 C233.25214947 989.9860932 231.81721238 990.72299351 230.3828125 991.4609375 C179.67497867 1017.399075 124.31969769 1032.94369439 68 1040.5625 C66.91831543 1040.70961426 65.83663086 1040.85672852 64.72216797 1041.00830078 C43.58186306 1043.68567609 22.4843144 1044.62739208 1.1875 1044.5625 C-0.03174164 1044.56100952 -1.25098328 1044.55951904 -2.50717163 1044.5579834 C-21.95141426 1044.51541392 -41.02707172 1043.78620299 -60.3125 1041.25 C-61.4567041 1041.10546387 -62.6009082 1040.96092773 -63.77978516 1040.81201172 C-139.34126473 1031.09096655 -216.64490368 1006.31502443 -279.61181641 962.42236328 C-281.97026051 960.79657393 -284.3672625 959.23203699 -286.76293945 957.66186523 C-301.29659318 948.10551628 -315.18213971 937.80205672 -328.56396484 926.69433594 C-331.04339102 924.64626483 -333.55622046 922.64006309 -336.0625 920.625 C-341.50203813 916.16929462 -346.66051255 911.43173631 -351.80517578 906.64404297 C-353.27542331 905.28429023 -354.76059818 903.94073414 -356.24609375 902.59765625 C-366.08401082 893.70041651 -375.85675455 884.55875406 -384.42578125 874.4140625 C-385.99272456 872.61678177 -387.59136297 870.8789778 -389.23046875 869.1484375 C-396.24377956 861.74235615 -402.72143576 854.13305108 -408.92236328 846.03857422 C-410.34886968 844.20320614 -411.80657404 842.3977099 -413.27734375 840.59765625 C-420.46455002 831.79796548 -427.04099856 822.72239312 -433.3125 813.25 C-433.77011719 812.56147949 -434.22773438 811.87295898 -434.69921875 811.16357422 C-478.61256472 744.87840808 -506.48050354 670.02022414 -517.5625 591.3125 C-517.71348145 590.25071533 -517.86446289 589.18893066 -518.02001953 588.0949707 C-518.50152242 584.48478475 -518.92567603 580.87130991 -519.3125 577.25 C-519.4433046 576.02961533 -519.4433046 576.02961533 -519.57675171 574.78457642 C-521.29844603 558.13357887 -521.67736064 541.56396012 -521.63055801 524.83203888 C-521.62490947 522.77960634 -521.62209408 520.72718209 -521.61947632 518.67474365 C-521.58188316 498.38994808 -521.10220022 478.37394477 -518.3125 458.25 C-518.14089355 456.96319336 -517.96928711 455.67638672 -517.79248047 454.35058594 C-505.85080148 365.8491833 -472.46244045 280.5533424 -407.65869141 195.90039062 C-406.41306603 194.37329096 -405.18054672 192.83552615 -403.94921875 191.296875 C-399.20990706 185.40430274 -394.23727343 179.79986937 -389.0859375 174.26953125 C-387.10049807 172.13418687 -385.1965733 169.94496814 -383.3046875 167.7265625 C-378.40730973 162.10968685 -373.12040842 156.87188472 -367.85302734 151.60522461 C-366.07488228 149.82489748 -364.30490439 148.03671623 -362.53515625 146.24804688 C-356.47501879 140.15869337 -350.34522365 134.43329107 -343.61328125 129.08520508 C-340.92398528 126.94010345 -338.43662697 124.67463164 -335.9375 122.3125 C-330.02175963 116.88834932 -323.74128304 112.03829015 -317.3125 107.25 C-316.2282373 106.43692383 -316.2282373 106.43692383 -315.12207031 105.60742188 C-304.73045563 97.82132297 -294.25287135 90.24726293 -283.3125 83.25 C-282.55308105 82.76208984 -281.79366211 82.27417969 -281.01123047 81.77148438 C-209.30840565 35.92050422 -127.93904018 8.97220926 -43.3125 1.25 C-42.25587158 1.15138672 -41.19924316 1.05277344 -40.1105957 0.95117188 C-26.76912801 -0.11791453 -13.37533515 0.00710382 0 0 Z " fill="#FEFEFE" transform="translate(641.3125,105.75)"/>
<path d="M0 0 C16.95913745 -0.23378394 33.9177709 -0.41002982 50.87815189 -0.51812172 C58.75354493 -0.56964913 66.62793585 -0.63987245 74.50268555 -0.75439453 C81.36781837 -0.85418606 88.23222545 -0.91860893 95.09806341 -0.94088495 C98.73269768 -0.95390435 102.36525617 -0.98440715 105.99922371 -1.05730057 C110.0603886 -1.13809946 114.1179654 -1.1398925 118.17993164 -1.13525391 C119.37971146 -1.17120667 120.57949127 -1.20715942 121.81562805 -1.24420166 C129.81552805 -1.14529523 129.81552805 -1.14529523 133.27467155 2.19943619 C135.0638111 4.72962329 136.56175548 7.25858446 138 10 C138.66386719 10.96808594 139.32773437 11.93617188 140.01171875 12.93359375 C144.12227917 19.07548007 148.07924766 25.29821817 152 31.5625 C155.81055109 37.64978427 159.76339722 43.51786296 164.07421875 49.265625 C166.83778351 53.18955062 169.2198703 57.31578381 171.64526367 61.45410156 C173.91661042 65.29484006 176.31885554 68.92514072 179 72.5 C182.588048 77.284064 185.61758676 82.27166333 188.62475586 87.42895508 C191.60684534 92.49000177 194.92741224 97.11256407 198.56640625 101.73046875 C200 104 200 104 200 108 C200.66 108 201.32 108 202 108 C203.41357422 109.82568359 203.41357422 109.82568359 205.0546875 112.3984375 C205.66328613 113.34356201 206.27188477 114.28868652 206.89892578 115.26245117 C207.55103027 116.28959229 208.20313477 117.3167334 208.875 118.375 C210.24399415 120.50441918 211.61379451 122.63332025 212.984375 124.76171875 C214.0062793 126.3537915 214.0062793 126.3537915 215.04882812 127.97802734 C217.69618159 132.0782452 220.40344683 136.13631194 223.125 140.1875 C228.12616164 147.64869712 233.03045629 155.17038681 237.90087891 162.7175293 C238.42214355 163.52359619 238.9434082 164.32966309 239.48046875 165.16015625 C239.94348389 165.87824463 240.40649902 166.59633301 240.88354492 167.33618164 C241.89519652 168.95958518 241.89519652 168.95958518 243 170 C243.375 172.75 243.375 172.75 243 176 C241.35783856 177.69081677 239.68753189 179.35446311 238 181 C236.66187376 182.84554265 235.37773027 184.73119216 234.14453125 186.6484375 C233.08588867 188.28232422 233.08588867 188.28232422 232.00585938 189.94921875 C231.27447631 191.09097723 230.54335655 192.23290442 229.8125 193.375 C228.38228098 195.5916432 226.95128367 197.80778443 225.51953125 200.0234375 C225.15483734 200.58914459 224.79014343 201.15485168 224.41439819 201.73770142 C221.29928184 206.56175519 218.11911317 211.34055318 214.926651 216.11364746 C211.70495409 220.93370534 208.51025796 225.77092761 205.328125 230.6171875 C204.8405925 231.35959686 204.35306 232.10200623 203.85075378 232.86691284 C202.83938183 234.40731282 201.82809696 235.94776998 200.81689453 237.48828125 C191.05605461 252.35614836 181.24320399 267.18773184 171.34472656 281.96435547 C167.34337483 287.94327815 163.37588399 293.93883314 159.5 300 C154.76673912 307.40087015 149.89400127 314.70473946 145 322 C143.9919933 323.50323413 142.98401924 325.00649014 141.97607422 326.50976562 C141.45645111 327.2846936 140.936828 328.05962158 140.40145874 328.85803223 C138.28178432 332.02030462 136.16397173 335.18382103 134.04663086 338.34765625 C132.95895254 339.97150008 131.87005261 341.59452621 130.7800293 343.21679688 C129.18215563 345.59551155 127.58869702 347.97712957 125.99609375 350.359375 C125.50765488 351.08429138 125.019216 351.80920776 124.51597595 352.55609131 C124.06783035 353.22819641 123.61968475 353.90030151 123.15795898 354.59277344 C122.76398422 355.18040466 122.37000946 355.76803589 121.96409607 356.37347412 C120.83091645 358.15442612 120.83091645 358.15442612 120 361 C42.78 361 -34.44 361 -114 361 C-114 316.78 -114 272.56 -114 227 C-72.875 226.6875 -72.875 226.6875 -60.03466797 226.61206055 C-26.51424463 226.42494736 -26.51424463 226.42494736 6 219 C7.47454769 218.62706947 8.95339851 218.27038258 10.4375 217.9375 C13.98018129 217.00521545 16.77583968 215.7149789 20 214 C22.33333333 213 24.66666667 212 27 211 C47.36424131 201.47203793 63.81302617 183.88271587 72 163 C72.41765625 162.030625 72.8353125 161.06125 73.265625 160.0625 C84.79485544 132.28122183 87.44711048 93.7124119 76.00585938 65.55322266 C75.32037363 64.0458535 74.62262125 62.54398337 73.91088867 61.04882812 C73 59 73 59 72.00390625 55.36328125 C70.86508861 51.54802061 69.11718247 48.47561375 66.9375 45.1875 C66.53901855 44.58075439 66.14053711 43.97400879 65.72998047 43.34887695 C59.18620901 33.60527073 51.22795468 26.18661925 42 19 C41.14921875 18.28714844 40.2984375 17.57429688 39.421875 16.83984375 C37.22134816 15.1681532 35.59742131 14.27014111 33 13.4375 C30.61908097 12.66466136 28.73625019 11.84089931 26.578125 10.5390625 C20.31502897 6.80018396 13.13254454 4.78092797 5.97265625 3.58984375 C3.5369174 2.86153372 1.99159645 1.55270424 0 0 Z " fill="#3B3B3D" transform="translate(455,430)"/>
<path d="M0 0 C0.66 0 1.32 0 2 0 C2 77.88 2 155.76 2 236 C0.68 235.67 -0.64 235.34 -2 235 C-2 233.68 -2 232.36 -2 231 C-3.98 230.01 -3.98 230.01 -6 229 C-6 227.68 -6 226.36 -6 225 C-6.99 224.67 -7.98 224.34 -9 224 C-9.74020612 222.33953763 -10.47086722 220.67366863 -11.13565063 218.9815979 C-12.62059022 215.57724165 -14.76721154 212.64093084 -16.88671875 209.60546875 C-17.34859085 208.93203934 -17.81046295 208.25860992 -18.28633118 207.56477356 C-19.7476527 205.43499968 -21.21675922 203.31077801 -22.6875 201.1875 C-24.16840433 199.04601385 -25.64743793 196.90334864 -27.12080383 194.75666809 C-28.03438848 193.42581414 -28.95238301 192.09797461 -29.87516785 190.77348328 C-33 186.22492622 -33 186.22492622 -33 184 C-34.32 183.34 -35.64 182.68 -37 182 C-37 180.68 -37 179.36 -37 178 C-37.99 177.67 -38.98 177.34 -40 177 C-40.68716064 175.38517249 -41.36600001 173.76637598 -42.00610352 172.13232422 C-43.15111775 169.67578915 -44.56540571 167.64247167 -46.15234375 165.4453125 C-50.72419157 159.01633557 -54.99080761 152.40298732 -59.27368164 145.77954102 C-62.19359235 141.27419447 -65.12063327 136.78443796 -68.1953125 132.3828125 C-68.89853638 131.36803833 -68.89853638 131.36803833 -69.6159668 130.33276367 C-70.46775776 129.11117615 -71.33046254 127.89709145 -72.20629883 126.69262695 C-73.93635347 124.19871015 -74.97578075 122.11914573 -75.58203125 119.13671875 C-74.72299135 114.50712788 -72.37629387 111.22422461 -69.75 107.375 C-69.25886719 106.62476563 -68.76773438 105.87453125 -68.26171875 105.1015625 C-66.27413635 102.11223857 -64.42370984 99.40694434 -61.828125 96.9140625 C-59.79836948 94.78889112 -58.96477219 92.69689979 -57.89404297 89.99023438 C-56.0905915 85.97556032 -53.49954627 82.40127253 -51.0625 78.75 C-49.88823287 76.9681658 -48.71508184 75.18559564 -47.54296875 73.40234375 C-46.9504834 72.50241699 -46.35799805 71.60249023 -45.74755859 70.67529297 C-43.07532603 66.58444015 -40.47295513 62.45077513 -37.875 58.3125 C-32.3251993 49.49205528 -26.68556586 40.73342517 -21 32 C-20.08734375 30.59717773 -20.08734375 30.59717773 -19.15625 29.16601562 C-17.16761077 26.11006109 -15.17783359 23.05485125 -13.1875 20 C-12.56512451 19.04448242 -11.94274902 18.08896484 -11.30151367 17.10449219 C-10.10907935 15.27627407 -8.91410552 13.44970919 -7.71630859 11.625 C-6.56293032 9.86097109 -5.42015312 8.08996943 -4.28759766 6.3125 C-3.75569824 5.4875 -3.22379883 4.6625 -2.67578125 3.8125 C-2.20696533 3.07644531 -1.73814941 2.34039062 -1.25512695 1.58203125 C-0.84093506 1.05996094 -0.42674316 0.53789062 0 0 Z " fill="#BF202F" transform="translate(921,485)"/>
<path d="M0 0 C0.66 0 1.32 0 2 0 C2.4846875 0.87140625 2.969375 1.7428125 3.46875 2.640625 C7.51465504 9.84713896 11.73151213 16.73846895 16.53125 23.4765625 C18 26 18 26 18 30 C18.66 30 19.32 30 20 30 C21.31274414 31.68066406 21.31274414 31.68066406 22.78515625 34.015625 C23.31560547 34.85480469 23.84605469 35.69398438 24.39257812 36.55859375 C25.21918945 37.89083984 25.21918945 37.89083984 26.0625 39.25 C26.61744141 40.12269531 27.17238281 40.99539063 27.74414062 41.89453125 C31.8747361 48.48537177 31.8747361 48.48537177 32.54077148 51.22167969 C32.69231689 51.80852539 32.8438623 52.39537109 33 53 C33.66 53.33 34.32 53.66 35 54 C35.185625 54.8971875 35.185625 54.8971875 35.375 55.8125 C35.85933585 58.19644422 35.85933585 58.19644422 38.0625 60 C40 62 40 62 40 66 C40.66 66 41.32 66 42 66 C45 71.75 45 71.75 45 74 C45.66 74 46.32 74 47 74 C48.46459961 76.04785156 48.46459961 76.04785156 50.15234375 78.890625 C51.06983398 80.42009766 51.06983398 80.42009766 52.00585938 81.98046875 C52.64330078 83.05941406 53.28074219 84.13835937 53.9375 85.25 C55.19481535 87.36044795 56.45386494 89.4698639 57.71484375 91.578125 C58.27292725 92.52075195 58.83101074 93.46337891 59.40600586 94.43457031 C60.9188476 96.99180087 60.9188476 96.99180087 62.70532227 99.08886719 C64 101 64 101 64 105 C64.66 105 65.32 105 66 105 C69 109.38461538 69 109.38461538 69 112 C69.66 112 70.32 112 71 112 C71 112.99 71 113.98 71 115 C24.47 115 -22.06 115 -70 115 C-68.56829627 111.42074067 -67.24421119 108.52015829 -65.3125 105.26171875 C-64.78422607 104.36807617 -64.25595215 103.47443359 -63.71166992 102.55371094 C-63.14681885 101.60786133 -62.58196777 100.66201172 -62 99.6875 C-61.41259033 98.69911133 -60.82518066 97.71072266 -60.2199707 96.69238281 C-56.15830877 89.88112663 -52.00569291 83.13431623 -47.77734375 76.42578125 C-44.22825567 70.78774838 -40.74086157 65.11169925 -37.25 59.4375 C-36.56405762 58.3225415 -35.87811523 57.20758301 -35.17138672 56.05883789 C-30.6983253 48.78053845 -26.24850737 41.4884288 -21.8125 34.1875 C-17.14403297 26.50910027 -12.46286291 18.83874707 -7.75 11.1875 C-7.20061768 10.29119873 -6.65123535 9.39489746 -6.08520508 8.47143555 C-5.57755615 7.6494165 -5.06990723 6.82739746 -4.546875 5.98046875 C-4.10182617 5.25754639 -3.65677734 4.53462402 -3.19824219 3.78979492 C-2 2 -2 2 0 0 Z " fill="#BF2130" transform="translate(770,676)"/>
<path d="M0 0 C40.92 0 81.84 0 124 0 C121.66761688 4.66476625 119.18350279 9.23377158 116.6875 13.8125 C116.16422119 14.77357666 115.64094238 15.73465332 115.10180664 16.72485352 C110.59144496 24.97948997 105.96927366 33.16836035 101.27807617 41.3215332 C98.53441525 46.12540367 96.04437115 50.85723935 94 56 C93.34 56 92.68 56 92 56 C91.5359375 57.670625 91.5359375 57.670625 91.0625 59.375 C90 63 90 63 89 65 C88.34 65 87.68 65 87 65 C86.690625 66.11375 86.38125 67.2275 86.0625 68.375 C85 72 85 72 84 74 C83.34 74 82.68 74 82 74 C81.73050537 74.877771 81.46101074 75.75554199 81.18334961 76.65991211 C80.05839287 79.83518201 78.73585514 82.52320019 77.06640625 85.44140625 C76.2165918 86.93510742 76.2165918 86.93510742 75.34960938 88.45898438 C74.75986328 89.48314453 74.17011719 90.50730469 73.5625 91.5625 C72.68368164 93.10454102 72.68368164 93.10454102 71.78710938 94.67773438 C69.23569816 99.14632406 66.65857997 103.59416893 64 108 C59.97449681 106.6581656 59.11714364 104.5772427 57 101 C57 100.34 57 99.68 57 99 C56.34 99 55.68 99 55 99 C52.56839395 95.63316085 52 94.26649636 52 90 C51.01 89.67 50.02 89.34 49 89 C47.47636832 86.7480549 46.12825377 84.55490507 44.8125 82.1875 C44.44447266 81.55779297 44.07644531 80.92808594 43.69726562 80.27929688 C41.75253505 76.84084004 41 75.03596476 41 71 C40.34 71 39.68 71 39 71 C37.72428516 68.8152247 36.45439327 66.62738381 35.1875 64.4375 C34.83107422 63.82841797 34.47464844 63.21933594 34.10742188 62.59179688 C31.74320987 58.4923834 29.79768943 54.3779025 28 50 C26.07814395 45.70761418 26.07814395 45.70761418 23.0625 42.1875 C19.65262712 38.57096816 17.51166578 33.66629505 16.57421875 28.78125 C16.38472656 28.1934375 16.19523438 27.605625 16 27 C15.01 26.67 14.02 26.34 13 26 C11.83203125 24.00390625 11.83203125 24.00390625 10.8125 21.5625 C10.46832031 20.75941406 10.12414062 19.95632813 9.76953125 19.12890625 C9 17 9 17 9 15 C8.01 14.67 7.02 14.34 6 14 C4.6484375 11.6015625 4.6484375 11.6015625 3.375 8.625 C2.94960938 7.64789063 2.52421875 6.67078125 2.0859375 5.6640625 C1.32647487 3.80092036 0.6362454 1.90873621 0 0 Z " fill="#BF202F" transform="translate(710,430)"/>
<path d="M0 0 C7.46625 -0.061875 14.9325 -0.12375 22.625 -0.1875 C24.95127441 -0.21481201 27.27754883 -0.24212402 29.67431641 -0.27026367 C47.18618693 -0.39061352 63.79545458 0.51672409 77.24609375 13.125 C86.22847705 22.72754785 86.62790914 34.20848757 86.3125 46.77734375 C86.04461925 51.86596175 84.85287532 55.76018838 82 60 C81.29423828 61.07314453 81.29423828 61.07314453 80.57421875 62.16796875 C77.80132308 66.10161144 74.98673651 69.24725336 71 72 C70.49597656 72.39832031 69.99195313 72.79664063 69.47265625 73.20703125 C51.52499977 86.20631855 17.31702653 82 0 82 C0 54.94 0 27.88 0 0 Z " fill="#BF202F" transform="translate(342,502)"/>
<path d="M0 0 C0.66 0 1.32 0 2 0 C2 77.88 2 155.76 2 236 C0.68 235.67 -0.64 235.34 -2 235 C-2 233.68 -2 232.36 -2 231 C-3.32 230.34 -4.64 229.68 -6 229 C-6 227.68 -6 226.36 -6 225 C-6.99 224.67 -7.98 224.34 -9 224 C-9.6875 221.9375 -9.6875 221.9375 -10 220 C-9.01 220.33 -8.02 220.66 -7 221 C-7 221.99 -7 222.98 -7 224 C-6.34 224 -5.68 224 -5 224 C-4.71125 224.804375 -4.4225 225.60875 -4.125 226.4375 C-3.26737432 229.1326468 -3.26737432 229.1326468 -1 230 C-1 156.41 -1 82.82 -1 7 C-2.98 7.99 -2.98 7.99 -5 9 C-3.7580393 5.56072421 -2.44259716 2.74792181 0 0 Z " fill="#D3656F" transform="translate(921,485)"/>
<path d="M0 0 C0.33 0.99 0.66 1.98 1 3 C68.815 3.495 68.815 3.495 138 4 C138.33 3.34 138.66 2.68 139 2 C139 2.99 139 3.98 139 5 C92.47 5 45.94 5 -2 5 C-1.34 3.35 -0.68 1.7 0 0 Z " fill="#D56E78" transform="translate(702,786)"/>
<path d="M0 0 C40.92 0 81.84 0 124 0 C123.67 0.66 123.34 1.32 123 2 C82 2 41 2 0 2 C0 1.34 0 0.68 0 0 Z " fill="#CC4D59" transform="translate(710,430)"/>
<path d="M0 0 C0.66 0 1.32 0 2 0 C2 13.2 2 26.4 2 40 C1.67 40 1.34 40 1 40 C0.67 28.78 0.34 17.56 0 6 C-1.98 6.99 -1.98 6.99 -4 8 C-2.87548273 5.0280615 -1.77706209 2.66559313 0 0 Z " fill="#C32E3C" transform="translate(920,486)"/>
<path d="M0 0 C1 3 1 3 0.25 5.125 C-1 7 -1 7 -4 8 C-2.87548273 5.0280615 -1.77706209 2.66559313 0 0 Z " fill="#D15F6A" transform="translate(920,486)"/>
</svg>
